<svg width="30" height="30" viewBox="0 0 30 30" fill="none" xmlns="http://www.w3.org/2000/svg">
<path d="M15 13.125C13.9687 13.125 13.0723 13.9687 13.0723 15C13.0723 16.0313 13.9687 16.875 15 16.875C16.033 16.875 16.875 16.0324 16.875 15C16.875 13.9676 16.0312 13.125 15 13.125ZM27.5508 7.5C26.9133 6.35742 25.1771 4.52637 20.7363 5.04609C19.4766 2.04375 17.5547 0 15 0C12.4453 0 10.5234 2.04375 9.26367 5.04609C4.82461 4.53398 3.08847 6.35742 2.45097 7.5C1.49121 9.22148 1.57734 11.7844 3.92929 15C1.57793 18.2156 1.49121 20.7791 2.45097 22.5C4.15781 25.5691 8.4041 25.0564 9.26543 24.9539C10.5234 27.9551 12.4453 30 15 30C17.5547 30 19.476 27.9562 20.7363 24.9533C21.5918 25.0547 25.8398 25.5703 27.5508 22.5C28.5105 20.7785 28.4244 18.215 26.0725 15C28.4238 11.7832 28.5059 9.22266 27.5508 7.5ZM5.58633 20.625C5.35189 20.2002 5.579 19.1748 6.46523 17.7979C6.86812 18.1787 7.29316 18.552 7.74726 18.9182C7.84248 19.7238 7.9817 20.5078 8.14283 21.2695C6.69726 21.3223 5.80605 21.0117 5.58633 20.625ZM7.74609 11.0801C7.29492 11.4492 6.86718 11.8242 6.46289 12.1992C5.57929 10.8281 5.35195 9.79687 5.58633 9.375C5.78414 9.01611 6.54609 8.70117 7.80586 8.70117C7.9084 8.70117 8.03297 8.72314 8.14283 8.72314C7.97461 9.50391 7.83984 10.2891 7.74609 11.0801ZM15 3.75C15.5568 3.75 16.3037 4.54102 16.9852 5.93262C16.3242 6.15234 15.668 6.4043 15 6.68555C14.332 6.4043 13.6758 6.15234 13.0137 5.92969C13.6934 4.54102 14.4434 3.75 15 3.75ZM15 26.25C14.4432 26.25 13.6963 25.459 13.0148 24.0674C13.6758 23.8477 14.332 23.5957 15 23.3145C15.6668 23.6001 16.326 23.8497 16.9852 24.0697C16.3066 25.459 15.5566 26.25 15 26.25ZM15 19.6875C12.4143 19.6875 10.3113 17.5852 10.3113 15C10.3113 12.4148 12.416 10.3125 15 10.3125C17.584 10.3125 19.6887 12.4148 19.6887 15C19.6887 17.5852 17.584 19.6875 15 19.6875ZM24.416 20.625C24.2036 21.0132 23.3027 21.3211 21.8596 21.2695C22.0208 20.5605 22.1599 19.7238 22.2551 18.9182C22.7094 18.552 23.134 18.1781 23.5372 17.7979C24.4219 19.1719 24.6504 20.2031 24.416 20.625ZM23.5371 12.1992C23.1342 11.8184 22.7092 11.4451 22.2551 11.0789C22.1599 10.2879 22.028 9.50391 21.8595 8.72051C21.9694 8.72051 22.0939 8.69854 22.1965 8.69854C23.4562 8.69854 24.2186 9.01348 24.416 9.37236C24.6504 9.79688 24.4219 10.8281 23.5371 12.1992Z" fill="black"/>
</svg>
